<svg xmlns="http://www.w3.org/2000/svg"  viewBox="0 0 370 227">
  <rect fill="#CCB271" x="0" y="0" width="370" height="227"></rect>
  <polygon fill="#231F20" points="291 0 184 227 291 227"></polygon>
  <polygon fill="#fff8e1" points="212.45394 0 106 227 184.548678 227 291 0"></polygon>
  <g transform="translate(122.000000, 48.000000)">
    <path d="M25.9470229,86.6172114 C3.31765143,75.8900114 -6.33052,48.8512114 4.39799429,26.22184 C15.12388,3.59378286 42.1639943,-6.05570286 64.7920514,4.67149714 C87.4201086,15.3986971 97.06828,42.4388114 86.3423943,65.0668686 C75.6151943,87.6949257 48.5763943,97.3444114 25.9470229,86.6172114" fill="#E24301"></path>
    <path d="M4.39733714,26.2217086 C15.1232229,3.59365143 42.1633371,-6.05583429 64.7913943,4.67136571 C87.4207657,15.3985657 97.0689371,42.43868 86.3430514,65.0667371" fill="#EA6929"></path>
  </g>
</svg>