<svg xmlns="http://www.w3.org/2000/svg" viewBox="0 0 192 111" fill="#d93f02">
  <polygon points="105.856506 28.2345979 138.517515 28.2345979 138.517515 27.3205979 105.856506 27.3205979"></polygon>
  <polygon points="53.2024131 28.2345979 85.8605467 28.2345979 85.8605467 27.3205979 53.2024131 27.3205979"></polygon>
  <path d="M94.9292096,25.6036437 C94.9450265,25.1671421 94.6900384,24.814399 94.2231992,24.814399 C93.6307831,24.814399 92.8835528,25.3485391 92.1780217,26.4895697 C91.6996793,27.2491399 91.3617721,28.109699 91.3617721,28.7716308 C91.3617721,29.2210551 91.6723591,29.4881252 92.0078699,29.4881252 C93.4769275,29.4881252 94.9292096,26.5326455 94.9292096,25.6036437 M90.7703146,28.3485305 C90.7703146,26.5738068 92.1090024,24.1687404 93.9825901,24.1687404 C94.9292096,24.1687404 95.4909504,24.856039 95.4909504,25.8142366 C95.4909504,27.3620943 94.2648984,30.16633 92.223076,30.16633 C91.4446912,30.16633 90.7703146,29.4187253 90.7703146,28.3485305"></path>
  <path d="M96.5936782,25.067972 C96.5241796,25.067972 96.4982973,25.0248962 96.5241796,24.9282149 L96.5816957,24.6893834 C96.6090159,24.5888732 96.6368153,24.5472332 96.750889,24.5472332 L97.9764617,24.5472332 C98.3982466,23.3391958 98.8799441,22.1684908 99.6252572,21.3376062 C100.020681,20.8881818 100.796669,20.3789299 101.712134,20.3789299 C102.532218,20.3789299 102.980844,20.8719087 102.980844,21.2098146 C102.980844,21.6463162 102.701411,21.8569091 102.419103,21.8569091 C101.965684,21.8569091 101.839628,21.6046762 101.797929,21.2959662 C101.78307,21.1519015 101.643594,20.8881818 101.22133,20.8881818 C99.9109206,20.8881818 99.3995064,22.969701 98.9360223,24.5472332 L100.302989,24.5472332 C100.389263,24.5472332 100.416104,24.5888732 100.389263,24.7147503 L100.318326,24.9698548 C100.302989,25.0531347 100.276627,25.067972 100.160157,25.067972 L98.8205108,25.067972 C98.4576799,26.2090025 97.8096649,28.6470938 97.1031752,30.4467057 C96.241392,32.6459655 95.2396528,34.206746 93.7317718,34.206746 C93.1695517,34.206746 92.7175709,33.8238498 92.7175709,33.3758613 C92.7175709,33.0508782 92.9567421,32.7704068 93.3262832,32.7704068 C93.7317718,32.7704068 93.9450608,33.1652684 93.98676,33.4040999 C94.0140801,33.5433784 94.114254,33.6429314 94.2273691,33.6429314 C94.9031835,33.6429314 95.6643135,32.458825 96.4254436,29.8546525 L97.8513641,25.067972 L96.5936782,25.067972 Z"></path>
  <polygon points="69.6189524 0.478620194 69.6189524 13.1400388 66.7929936 13.1400388 66.7929936 6.99934172 63.3679085 10.4248264 59.9418648 6.99934172 59.9418648 13.1400388 57.1139888 13.1400388 57.1139888 0.478620194 63.3679085 6.74040819"></polygon>
  <polygon points="71.9866994 13.1400388 74.8332682 13.1400388 74.8332682 0.61789867 71.9866994 0.61789867"></polygon>
  <polygon points="87.9390835 13.2824283 80.0258237 6.59801868 80.0258237 13.1402781 77.1974684 13.1402781 77.1974684 0.478859504 85.1107282 7.16183327 85.1107282 0.618137981 87.9390835 0.618137981"></polygon>
  <polygon points="90.3070223 13.1400388 93.1497566 13.1400388 93.1497566 0.61789867 90.3070223 0.61789867"></polygon>
  <path d="M100.392522,5.80489716 C102.125195,6.5807405 103.130769,7.83281092 103.130769,9.56062982 C103.130769,11.8154096 101.47047,13.2823805 99.1396294,13.2823805 C97.1265651,13.2823805 95.5022139,12.4558034 94.6351584,10.8289733 L96.7709237,9.08248825 C97.3211613,9.94687632 98.22033,10.6356108 99.0854684,10.6356108 C99.9165763,10.6356108 100.287555,10.3202001 100.287555,9.73484757 C100.287555,9.17390471 99.8820667,8.81924714 98.8213735,8.34732763 L98.1153631,8.02473762 C96.2269171,7.18093022 95.1829995,5.78479511 95.1829995,4.09047963 C95.1829995,1.90414258 97.0009882,0.478811642 98.997277,0.478811642 C100.392522,0.478811642 101.453215,0.811452677 102.511991,2.04629278 L100.604373,4.05841207 C99.9688201,3.28256874 99.5791484,3.12270959 98.997277,3.12270959 C98.5198932,3.12270959 98.0266924,3.42519756 98.0266924,3.98757628 C98.0266924,4.63945699 98.5750128,4.99124283 99.7219801,5.50288782 L100.392522,5.80489716 Z"></path>
  <polygon points="109.853062 3.40480834 109.853062 13.1399431 106.973421 13.1399431 106.973421 3.40480834 103.99121 3.40480834 103.99121 0.618281567 112.838628 0.618281567 112.838628 3.40480834"></polygon>
  <path d="M119.243911,5.68270543 C120.001686,5.68270543 120.550485,5.13372806 120.550485,4.4449936 C120.550485,3.76056673 120.001686,3.1910087 119.243911,3.1910087 L117.636335,3.1910087 L117.636335,5.68270543 L119.243911,5.68270543 Z M117.636335,13.1400867 L114.82811,13.1400867 L114.82811,0.617946533 L119.560729,0.617946533 C121.60974,0.617946533 123.288253,2.29646755 123.288253,4.34017578 C123.288253,5.89473417 122.332047,7.26933137 120.886475,7.81256529 L124.948072,13.1400867 L121.574272,13.1400867 L117.688579,8.06288365 L117.636335,8.06288365 L117.636335,13.1400867 Z"></path>
  <polygon points="132.140128 0.618137981 135.478939 0.618137981 130.830677 7.88263529 130.830677 13.1402781 128.006636 13.1402781 128.006636 7.88263529 123.36125 0.618137981 126.665072 0.618137981 129.404757 5.01187136"></polygon>
  <polygon points="61.8911341 41.9367493 65.0358281 41.9367493 59.118857 54.5996037 53.2023652 41.9367493 56.3470592 41.9367493 59.118857 48.1956655"></polygon>
  <polygon points="69.0755209 46.8403089 72.959297 46.8403089 72.959297 49.5555212 69.0755209 49.5555212 69.0755209 51.6710225 74.0199902 51.6710225 74.0199902 54.4575493 66.2495621 54.4575493 66.2495621 41.936845 74.0199902 41.936845 74.0199902 44.7248076 69.0755209 44.7248076"></polygon>
  <polygon points="75.9598652 41.9367493 78.8030788 41.9367493 78.8030788 51.6532178 83.6593568 51.6532178 83.6593568 54.4574535 75.9598652 54.4574535"></polygon>
  <path d="M94.0429341,48.195522 C94.0429341,46.1834027 92.5067743,44.5111037 90.4750173,44.5111037 C88.4432602,44.5111037 86.9066212,46.1834027 86.9066212,48.195522 C86.9066212,50.206684 88.4432602,51.8847264 90.4750173,51.8847264 C92.5067743,51.8847264 94.0429341,50.206684 94.0429341,48.195522 M84.0653247,48.195522 C84.0653247,44.6680911 86.944486,41.7958913 90.4750173,41.7958913 C94.0074658,41.7958913 96.886627,44.6680911 96.886627,48.195522 C96.886627,51.7248673 94.0074658,54.5994602 90.4750173,54.5994602 C86.944486,54.5994602 84.0653247,51.7248673 84.0653247,48.195522"></path>
  <path d="M104.650968,51.8844871 C105.992532,51.8844871 107.121285,51.1565058 107.758277,50.1351303 L109.896918,51.8844871 C108.727423,53.5218468 106.801112,54.5996995 104.650968,54.5996995 C101.118519,54.5996995 98.2374411,51.724628 98.2374411,48.1952826 C98.2374411,44.6678518 101.118519,41.7961307 104.650968,41.7961307 C106.801112,41.7961307 108.727423,42.8739833 109.896918,44.511343 L107.758277,46.2544778 C107.121285,45.2335809 105.992532,44.511343 104.650968,44.511343 C102.62017,44.511343 101.083531,46.183642 101.083531,48.1952826 C101.083531,50.2064447 102.62017,51.8844871 104.650968,51.8844871"></path>
  <polygon points="111.954653 54.4574057 114.799304 54.4574057 114.799304 41.9367014 111.954653 41.9367014"></polygon>
  <polygon points="122.301803 44.7248076 122.301803 54.4570706 119.421204 54.4570706 119.421204 44.7248076 116.437555 44.7248076 116.437555 41.936845 125.284493 41.936845 125.284493 44.7248076"></polygon>
  <polygon points="135.18067 41.9367493 138.518043 41.9367493 133.873616 49.2026824 133.873616 54.4574535 131.048615 54.4574535 131.048615 49.2026824 126.404189 41.9367493 129.704176 41.9367493 132.443861 46.3256964"></polygon>
  <polygon points="175.428966 25.9613166 180.365287 25.9613166 180.365287 12.0803737 175.428966 12.0803737"></polygon>
  <polygon points="151.161955 25.9613166 156.099715 25.9613166 156.099715 14.5419174 151.161955 14.5419174"></polygon>
  <polygon points="159.25016 25.9613166 164.189357 25.9613166 164.189357 10.3176155 159.25016 10.3176155"></polygon>
  <polygon points="167.339323 25.9613166 172.277083 25.9613166 172.277083 5.76498024 167.339323 5.76498024"></polygon>
  <polygon points="11.3546411 25.9613166 16.290483 25.9613166 16.290483 12.0803737 11.3546411 12.0803737"></polygon>
  <polygon points="35.6197346 25.9613166 40.5589316 25.9613166 40.5589316 14.5419174 35.6197346 14.5419174"></polygon>
  <polygon points="27.5310506 25.9613166 32.4678511 25.9613166 32.4678511 10.3176155 27.5310506 10.3176155"></polygon>
  <polygon points="19.4418872 25.9613166 24.3801257 25.9613166 24.3801257 5.76498024 19.4418872 5.76498024"></polygon>
  <path d="M190.843718,37.0110295 C187.732096,49.3522512 182.032248,61.0951977 173.664611,72.1819559 C170.656039,76.1707766 167.389602,79.8116404 163.883036,83.1088549 C175.917326,69.6462261 182.910328,50.8479393 183.240566,28.3456109 L182.605972,28.3456109 L181.870245,28.3456109 C181.540485,34.665312 181.409157,62.2094255 158.927543,86.2442958 C155.879667,89.5056138 152.836585,91.175041 148.776906,94.0654284 L146.026676,95.7377273 C145.971557,95.8104776 144.741191,96.4097101 142.845076,97.4899559 C139.519686,99.0938121 133.911864,102.008131 130.079852,99.82993 C126.245923,97.6502936 125.817908,97.0376598 122.187682,96.1220594 C118.557935,95.2078948 114.029978,96.6724726 114.029978,96.6724726 L115.113199,95.8951934 L115.092589,95.8951934 C147.179395,72.9257317 149.450324,34.4738639 149.600345,28.3355599 L149.560084,28.3355599 L149.560084,28.3087572 L148.295687,28.3087572 C148.311984,28.8543842 148.23913,83.083488 96.0202425,104.459623 L95.8601559,104.521844 L95.7005487,104.459623 C43.4826198,83.083488 43.406411,28.8543842 43.4246244,28.3087572 L42.1602283,28.3087572 C42.1578318,28.3173723 42.1578318,28.3250303 42.1578318,28.3355599 L42.1209257,28.3355599 C42.2680711,34.4738639 44.5399579,72.9257317 76.6277232,95.8951934 L76.6071133,95.8951934 L77.6903336,96.6724726 C77.6903336,96.6724726 73.1628562,95.2078948 69.5326302,96.1220594 C65.9024043,97.0376598 65.4739092,97.6502936 61.640939,99.82993 C57.8065308,102.008131 52.1982296,99.0938121 48.8752356,97.4899559 C46.9781622,96.4097101 45.7492344,95.8104776 45.6941147,95.7377273 L42.9400511,94.0654284 C38.8837266,91.175041 35.8396858,89.5056138 32.7913313,86.2442958 C10.3121135,62.2094255 10.1817436,34.665312 9.85006732,28.3456109 L9.11529886,28.3456109 L8.48022501,28.3456109 C8.80998411,50.8479393 15.8015481,69.6462261 27.8382346,83.1088549 C24.3297511,79.8116404 21.063794,76.1707766 18.0561801,72.1819559 C9.68806357,61.0951977 3.98821585,49.3522512 0.878031537,37.0110295 L-4.79301019e-05,37.3139961 C8.34793792,69.6940881 24.7333226,88.899202 51.9585791,100.855134 C53.1381389,101.429479 54.3402258,101.990422 55.5720295,102.53222 C57.5481876,103.40283 59.5454349,103.938406 61.5632922,104.171972 C65.0540415,104.796093 68.5836142,104.609431 71.8989394,103.057745 C71.9109219,103.050087 71.9248216,103.040993 71.9406386,103.036685 C72.5244272,102.852417 73.1120503,102.655225 73.6982354,102.437453 C76.3784867,101.441444 79.8572535,101.78988 82.6673954,102.665276 C85.7152706,103.61103 88.4060665,105.882561 91.5646602,107.762581 L95.844339,110.060915 L95.844339,110.079103 L95.8601559,110.068573 L95.8740557,110.079103 L95.8740557,110.060915 L100.154693,107.762581 C103.313766,105.882561 106.006,103.61103 109.052437,102.665276 C111.864017,101.78988 115.342304,101.441444 118.022556,102.437453 C118.608262,102.655225 119.195405,102.852417 119.78207,103.036685 C119.79597,103.040993 119.810349,103.050087 119.823769,103.057745 C123.135739,104.609431 126.66675,104.796093 130.155582,104.171972 C132.172001,103.938406 134.172124,103.40283 136.148282,102.53222 C137.380086,101.990422 138.582173,101.429479 139.761733,100.855134 C166.988427,88.899202 183.370936,69.6940881 191.72036,37.3139961 L190.843718,37.0110295 Z"></path>
  <path d="M161.932137,49.5033038 L155.565102,46.4334338 L161.900982,49.6310954 C161.912965,49.5865837 161.921592,49.5449437 161.932137,49.5033038"></path>
  <path d="M178.501717,45.316095 L178.510824,45.2376013 L163.407569,49.4662107 C163.3999,49.4930134 163.395587,49.5183803 163.388397,49.545183 L178.501717,45.316095 Z"></path>
  <path d="M178.262546,46.3696338 L163.09842,50.6595066 C163.089793,50.6906169 163.082124,50.7183769 163.073496,50.7499658 L178.210302,46.5122626 L178.262546,46.3696338 Z"></path>
  <path d="M149.07714,44.4555838 C149.07714,44.4555838 149.067075,44.5120609 149.053175,44.5694954 L161.612299,50.6178188 L161.597441,50.5656492 L149.07714,44.4555838 Z"></path>
  <path d="M50.6828235,88.3320849 L44.8554818,87.5706002 L35.7664965,86.4803034 C38.6950258,88.8480375 43.1669043,92.2658643 48.9348127,95.3505715 L48.9357713,95.3505715 C48.9357713,95.3505715 55.0329596,98.606146 57.093954,98.5080289 C59.0336852,98.4084759 61.2284046,97.7168697 63.1997697,96.6308805 C58.5308984,94.2645822 54.438147,91.4584321 50.8500996,88.3588877 L50.6828235,88.3320849 Z"></path>
  <path d="M59.8815208,82.5330269 L52.0401561,87.8854366 C55.6219726,90.9596141 59.7032208,93.7097657 64.3682576,95.9736392 C65.9806263,95.1207381 68.3536456,94.1070205 71.002263,93.9586482 C66.7187498,90.3900561 63.0434696,86.5318987 59.8815208,82.5330269"></path>
  <path d="M161.995788,49.2436523 C164.767107,38.285643 165.006278,29.6441554 165.021136,28.3380009 L151.0845,28.3351291 C151.0845,28.3351291 150.744197,37.0110774 149.316359,43.2814806 L151.411863,44.3411457 L161.995788,49.2436523 Z"></path>
  <path d="M178.513412,45.2032364 L180.500594,28.3457545 L166.385179,28.3380966 C166.338207,30.9867807 165.973939,39.168793 163.464319,49.2332184 L178.513412,45.2032364 Z"></path>
  <path d="M153.881366,70.165529 C157.521657,63.5907234 159.978075,56.8101111 161.625912,50.6698926 L161.612491,50.617723 L156.3536,48.084865 L149.026526,44.6928837 C148.686222,46.2981758 146.064925,58.2904834 143.033825,63.6543799 L153.881366,70.165529 Z"></path>
  <path d="M170.780944,66.7455484 L178.150677,46.6679099 L166.659914,49.7454377 L163.073305,50.7500615 C161.453267,56.8395462 159.035673,63.5344855 155.451939,70.0633436 L170.780944,66.7455484 Z"></path>
  <path d="M131.798865,82.5793095 C128.647461,86.5619082 124.984163,90.4066642 120.718384,93.9585046 C123.367481,94.1068769 125.741938,95.1205945 127.353348,95.9734957 C131.994899,93.7196732 136.06081,90.9824443 139.632561,87.9240612 L131.798865,82.5793095 Z"></path>
  <path d="M147.005936,87.5398249 L141.962731,88.1984063 L140.870404,88.3587441 C137.281877,91.4587671 133.189605,94.2644387 128.521213,96.6307369 C130.49114,97.7172047 132.684422,98.4083323 134.62655,98.5078853 C136.686106,98.6060024 142.784253,95.3504279 142.784253,95.3504279 C148.564623,92.2594987 153.04465,88.8320995 155.973179,86.4681943 L147.005936,87.5398249 Z"></path>
  <path d="M140.58637,86.9770633 L140.729202,86.9579185 C145.925784,82.2736627 150.013263,76.8963648 153.227455,71.3304905 L152.156218,70.6719092 L142.493509,64.8700752 C139.993954,70.4220694 136.770655,76.0965904 132.611281,81.5361089 L140.58637,86.9770633 Z"></path>
  <path d="M157.688166,84.932685 C162.873724,79.618565 166.878763,73.9258564 169.978403,68.2719161 L158.750776,70.702828 L154.536762,71.7002725 C151.451501,77.0019484 147.547115,82.141372 142.649138,86.7294252 L157.688166,84.932685 Z"></path>
  <path d="M49.202071,64.8236011 L40.4452414,70.0793295 L38.4738763,71.2950248 C41.6923826,76.8771721 45.7918442,82.2736148 51.00616,86.9727079 L51.02677,86.9770155 L59.0751927,81.4867632 C54.92157,76.0458088 51.6982707,70.3703306 49.202071,64.8236011"></path>
  <path d="M34.119762,70.9727698 L21.759068,68.2972829 C24.8587077,73.9478729 28.8594333,79.6381884 34.0440325,84.942736 L49.0844984,86.7428266 C44.1802904,82.1519017 40.270632,77.0072132 37.1839334,71.7002725 L34.119762,70.9727698 Z"></path>
  <path d="M25.5557552,49.9085515 L13.578502,46.6989245 L20.9491931,66.7689051 L36.2834706,70.0900506 C32.693506,63.5597567 30.2759116,56.8676891 28.6529984,50.7738968 L25.5557552,49.9085515 Z"></path>
  <path d="M28.2654356,49.2644723 C25.7491052,39.1818593 25.381002,30.9883602 25.3335512,28.3382402 L11.2214913,28.3454195 L13.209632,45.2344903 L28.2654356,49.2644723 Z"></path>
  <path d="M41.5011894,43.73885 L42.4051512,43.2817677 C41.1105591,36.7486021 40.6341339,28.3354163 40.6341339,28.3354163 L26.6998947,28.338288 C26.7128358,29.6439639 26.952007,38.2648709 29.7142188,49.2008637 L41.5011894,43.73885 Z"></path>
  <path d="M42.6706839,44.6528231 L35.9312323,47.77329 L30.1221039,50.5730954 L30.0928666,50.6692938 C31.7402242,56.7944065 34.1889731,63.5555775 37.8139267,70.1186085 L48.6681776,63.6005658 C43.7011811,50.3237452 42.8115984,45.5817842 42.6706839,44.6528231"></path>
</svg>